<svg xmlns="http://www.w3.org/2000/svg" viewBox="0 0 169.05 20.68"><defs><style>.cls-1{fill:#e1e1e1;}.cls-2{fill:#649b43;}.cls-3{fill:#faa950;}.cls-4{fill:#356a9a;}.cls-5{fill:#00bfdc;}.cls-6{fill:#c9d7ec;}</style></defs><g id="Layer_2" data-name="Layer 2"><g id="Capa_3" data-name="Capa 3"><path class="cls-1" d="M6.83,10.71A3.43,3.43,0,0,1,5.64,12.9a3.41,3.41,0,0,1-2.23.74,3.42,3.42,0,0,1-2.5-1A3.13,3.13,0,0,1,.1,11,13.88,13.88,0,0,1,0,8.93a14,14,0,0,1,.1-2.1,3.06,3.06,0,0,1,.81-1.6,3.39,3.39,0,0,1,2.5-1A3.4,3.4,0,0,1,5.67,5,3.37,3.37,0,0,1,6.83,7.14H5A1.51,1.51,0,0,0,3.43,5.82a1.48,1.48,0,0,0-1.27.62,5.35,5.35,0,0,0-.35,2.49q0,1.08,0,1.35a2.24,2.24,0,0,0,.43,1.26A1.44,1.44,0,0,0,3.43,12,1.51,1.51,0,0,0,5,10.71Z"/><path class="cls-1" d="M13.83,10.7H9.59a1.5,1.5,0,0,0,.4,1.09,1.4,1.4,0,0,0,1.08.42,2.09,2.09,0,0,0,1.54-.64l1,1a3.69,3.69,0,0,1-1.09.8,3.71,3.71,0,0,1-1.49.27q-3.13,0-3.14-3.48A3.73,3.73,0,0,1,8.74,7.6a2.71,2.71,0,0,1,2.14-.9,2.78,2.78,0,0,1,2.19.92,3.43,3.43,0,0,1,.76,2.32ZM12.17,9.54A1.82,1.82,0,0,0,12,8.81a1.14,1.14,0,0,0-1.13-.71,1.15,1.15,0,0,0-1.14.71,2,2,0,0,0-.15.73Z"/><path class="cls-1" d="M21,13.56H19.33V9.46a1.21,1.21,0,0,0-.36-1,1,1,0,0,0-.75-.28,1.07,1.07,0,0,0-.77.28,1.21,1.21,0,0,0-.36,1v4.1H15.4V6.78h1.65V7.4a2.24,2.24,0,0,1,1.7-.7,2.17,2.17,0,0,1,1.6.6A2.6,2.6,0,0,1,21,9.23Z"/><path class="cls-1" d="M25.92,13.56H25A1.89,1.89,0,0,1,23.5,13,2,2,0,0,1,23,11.62V8.26h-.71V7H23V5h1.71V7h1.18V8.26H24.74v3.26c0,.41.19.61.58.61h.6Z"/><path class="cls-1" d="M32.41,7.34,31.14,8.63a1.25,1.25,0,0,0-.9-.41,1.05,1.05,0,0,0-.75.3,1.31,1.31,0,0,0-.35,1v4.09H27.45V6.78H29.1v.65a2.1,2.1,0,0,1,1.71-.73A2.15,2.15,0,0,1,32.41,7.34Z"/><path class="cls-1" d="M49.41,13.56H47.76v-.63a2.18,2.18,0,0,1-1.68.71A2.24,2.24,0,0,1,44.41,13a2.39,2.39,0,0,1-.6-1.3,10,10,0,0,1-.09-1.57,9.93,9.93,0,0,1,.09-1.55,2.32,2.32,0,0,1,.6-1.3,2.2,2.2,0,0,1,1.65-.61,2.09,2.09,0,0,1,1.65.68V4.29h1.7Zm-1.7-3.4a3.51,3.51,0,0,0-.2-1.38,1,1,0,0,0-.95-.56,1,1,0,0,0-1,.65,4,4,0,0,0-.14,1.29,4,4,0,0,0,.14,1.29,1,1,0,0,0,1,.67,1,1,0,0,0,.95-.56A3.63,3.63,0,0,0,47.71,10.16Z"/><path class="cls-1" d="M56.88,10.7H52.63a1.5,1.5,0,0,0,.4,1.09,1.41,1.41,0,0,0,1.09.42,2.07,2.07,0,0,0,1.53-.64l1,1a3.69,3.69,0,0,1-1.09.8,3.71,3.71,0,0,1-1.49.27Q51,13.64,51,10.16a3.78,3.78,0,0,1,.82-2.56,2.72,2.72,0,0,1,2.14-.9,2.78,2.78,0,0,1,2.19.92,3.44,3.44,0,0,1,.77,2.32ZM55.21,9.54a1.82,1.82,0,0,0-.16-.73,1.25,1.25,0,0,0-2.26,0,1.82,1.82,0,0,0-.16.73Z"/><path class="cls-1" d="M68.76,13.56H66.87l-.55-1.64H63l-.56,1.64H60.58L64,4.29h1.42ZM65.84,10.4,64.71,7,63.53,10.4Z"/><path class="cls-1" d="M74.71,12.72a3,3,0,0,1-2.24.92,2.91,2.91,0,0,1-2-.7,3.53,3.53,0,0,1-1-2.78,3.49,3.49,0,0,1,1-2.76,2.91,2.91,0,0,1,2-.7,3,3,0,0,1,2.24.91L73.57,8.76a1.46,1.46,0,0,0-1.09-.54,1.18,1.18,0,0,0-1,.46,2.4,2.4,0,0,0-.37,1.48,2.42,2.42,0,0,0,.37,1.5,1.18,1.18,0,0,0,1,.46,1.46,1.46,0,0,0,1.09-.54Z"/><path class="cls-1" d="M81,12.72a3,3,0,0,1-2.24.92,2.92,2.92,0,0,1-2-.7,3.57,3.57,0,0,1-1-2.78,3.52,3.52,0,0,1,1-2.76A3.24,3.24,0,0,1,81,7.61L79.82,8.76a1.46,1.46,0,0,0-1.09-.54,1.18,1.18,0,0,0-1,.46,2.4,2.4,0,0,0-.37,1.48,2.42,2.42,0,0,0,.37,1.5,1.18,1.18,0,0,0,1,.46,1.46,1.46,0,0,0,1.09-.54Z"/><path class="cls-1" d="M84,5.63h-1.7V4.25H84Zm0,7.93h-1.7V6.78H84Z"/><path class="cls-1" d="M91.32,10.16a5.84,5.84,0,0,1-.16,1.55,2.39,2.39,0,0,1-.61,1.1,3.08,3.08,0,0,1-4.21,0,2.59,2.59,0,0,1-.61-1.1,6.36,6.36,0,0,1-.15-1.55,3.75,3.75,0,0,1,.78-2.64,2.72,2.72,0,0,1,2.08-.82,2.75,2.75,0,0,1,2.1.82A3.75,3.75,0,0,1,91.32,10.16Zm-1.71,0a2.43,2.43,0,0,0-.38-1.64,1.06,1.06,0,0,0-.79-.3,1,1,0,0,0-.77.3,2.42,2.42,0,0,0-.39,1.64,2.45,2.45,0,0,0,.39,1.66,1,1,0,0,0,.77.3,1.06,1.06,0,0,0,.79-.3A2.46,2.46,0,0,0,89.61,10.16Z"/><path class="cls-1" d="M98.58,13.56H96.87V9.46a1.21,1.21,0,0,0-.36-1,1,1,0,0,0-.75-.28A1.07,1.07,0,0,0,95,8.5a1.21,1.21,0,0,0-.36,1v4.1H92.94V6.78h1.65V7.4a2.22,2.22,0,0,1,1.69-.7,2.18,2.18,0,0,1,1.61.6,2.6,2.6,0,0,1,.69,1.93Z"/><path class="cls-1" d="M110.07,10.71a3.29,3.29,0,0,1-3.42,2.93,3.42,3.42,0,0,1-2.5-1,3,3,0,0,1-.8-1.61,13.48,13.48,0,0,1-.11-2.09,13.55,13.55,0,0,1,.11-2.1,3,3,0,0,1,.8-1.6,3.43,3.43,0,0,1,5.92,1.91h-1.84a1.51,1.51,0,0,0-1.56-1.32,1.48,1.48,0,0,0-1.27.62,5.35,5.35,0,0,0-.35,2.49q0,1.08,0,1.35a2.24,2.24,0,0,0,.43,1.26,1.44,1.44,0,0,0,1.16.49,1.51,1.51,0,0,0,1.56-1.32Z"/><path class="cls-1" d="M114.38,13.56h-1A1.9,1.9,0,0,1,111.9,13a2,2,0,0,1-.46-1.33V4.29h1.7v7.23a.53.53,0,0,0,.59.61h.65Z"/><rect class="cls-1" x="115.72" y="3.35" width="1.71" height="1.62"/><rect class="cls-1" x="115.72" y="6.78" width="1.71" height="6.79"/><path class="cls-1" d="M128.9,13.56h-1.7V9.46a1.21,1.21,0,0,0-.36-1,1,1,0,0,0-.75-.28,1.12,1.12,0,0,0-.75.26,1.21,1.21,0,0,0-.37.94v4.14h-1.71V9.46a1.21,1.21,0,0,0-.36-1,1.05,1.05,0,0,0-.76-.28,1,1,0,0,0-.76.28,1.18,1.18,0,0,0-.37,1v4.1h-1.69V6.78H121V7.4a2.25,2.25,0,0,1,1.69-.7,2.06,2.06,0,0,1,1.8.86,2.68,2.68,0,0,1,2-.86,2.25,2.25,0,0,1,1.67.6,2.58,2.58,0,0,1,.74,1.93Z"/><path class="cls-1" d="M135.87,13.56h-1.65V13a2.27,2.27,0,0,1-1.67.65,2.31,2.31,0,0,1-1.72-.59,2.1,2.1,0,0,1-.57-1.53,1.87,1.87,0,0,1,.59-1.42,2.42,2.42,0,0,1,1.72-.55h1.6V9.2c0-.71-.42-1.07-1.26-1.07a1.63,1.63,0,0,0-1.3.56l-1.08-1a2.66,2.66,0,0,1,1.06-.75A4.08,4.08,0,0,1,133,6.7c1.93,0,2.89.8,2.89,2.39Zm-1.7-2.5V10.7h-1.34c-.63,0-.94.25-.94.77s.32.78,1,.78a1.3,1.3,0,0,0,1.15-.43A1.36,1.36,0,0,0,134.17,11.06Zm.91-7.58-1.49,2.21h-1.13l.83-2.21Z"/><path class="cls-1" d="M140.75,13.56h-.93a1.89,1.89,0,0,1-1.5-.61,2,2,0,0,1-.47-1.33V6.7h1.71v4.82c0,.41.19.61.58.61h.61Z"/><rect class="cls-1" x="142.26" y="3.35" width="1.71" height="1.62"/><rect class="cls-1" x="142.26" y="6.78" width="1.71" height="6.79"/><path class="cls-1" d="M150.79,12.72a3,3,0,0,1-2.24.92,2.89,2.89,0,0,1-2-.7,3.54,3.54,0,0,1-1-2.78,3.49,3.49,0,0,1,1-2.76,2.89,2.89,0,0,1,2-.7,3,3,0,0,1,2.24.91l-1.14,1.15a1.46,1.46,0,0,0-1.09-.54,1.18,1.18,0,0,0-1,.46,2.33,2.33,0,0,0-.37,1.48,2.36,2.36,0,0,0,.37,1.5,1.18,1.18,0,0,0,1,.46,1.46,1.46,0,0,0,1.09-.54Z"/><path class="cls-1" d="M157.25,13.56H155.6V13a2.28,2.28,0,0,1-1.67.65,2.31,2.31,0,0,1-1.72-.59,2.1,2.1,0,0,1-.57-1.53,1.84,1.84,0,0,1,.59-1.42A2.42,2.42,0,0,1,154,9.54h1.6V9.2c0-.71-.42-1.07-1.26-1.07a1.63,1.63,0,0,0-1.3.56l-1.08-1A2.59,2.59,0,0,1,153,6.89a4,4,0,0,1,1.39-.19c1.93,0,2.89.8,2.89,2.39Zm-1.7-2.5V10.7h-1.34c-.63,0-.94.25-.94.77s.32.78,1,.78a1.3,1.3,0,0,0,1.15-.43A1.46,1.46,0,0,0,155.55,11.06Z"/><rect class="cls-2" x="27.37" y="17.18" width="4.46" height="1.71" transform="translate(-4.08 26.21) rotate(-45.01)"/><polygon class="cls-2" points="32.39 20.2 30.69 20.2 30.69 16.94 27.43 16.94 27.43 15.24 32.39 15.24 32.39 20.2"/><polygon class="cls-2" points="44.58 1.21 43.38 0 41.31 2.06 41.31 0.01 39.61 0.01 39.61 4.98 44.57 4.98 44.57 3.27 42.52 3.27 44.58 1.21"/><circle class="cls-2" cx="36.23" cy="10.17" r="3.47"/><polygon class="cls-3" points="141.12 1.62 139.56 1.62 139.56 0.01 137.85 0.01 137.85 1.62 136.29 1.62 136.29 3.37 137.85 3.37 137.85 4.98 139.56 4.98 139.56 3.37 141.12 3.37 141.12 1.62"/><polygon class="cls-4" points="92.7 1.21 91.49 0 89.43 2.06 89.43 0.01 87.72 0.01 87.72 4.98 92.69 4.98 92.69 3.27 90.64 3.27 92.7 1.21"/><rect class="cls-5" x="164.07" y="1.6" width="4.99" height="1.78"/><path class="cls-5" d="M162.48,8.7V1.6H160.7V8.7a2.48,2.48,0,1,0,1.78,0Z"/><path class="cls-6" d="M142.23,18.4a1.89,1.89,0,0,1-1.24.36h-1v1.78h-1V15.6h2.12a1.73,1.73,0,0,1,1.17.38,1.51,1.51,0,0,1,.43,1.19A1.52,1.52,0,0,1,142.23,18.4Zm-.79-1.78a.82.82,0,0,0-.55-.16H140v1.45h.93a.82.82,0,0,0,.55-.17.74.74,0,0,0,.2-.57A.7.7,0,0,0,141.44,16.62Z"/><path class="cls-6" d="M143.49,15.6h1v3a1.76,1.76,0,0,0,.12.75,1,1,0,0,0,1.63,0,1.76,1.76,0,0,0,.12-.75v-3h1.05v3a2.44,2.44,0,0,1-.25,1.22,2.26,2.26,0,0,1-3.47,0,2.44,2.44,0,0,1-.25-1.22Z"/><path class="cls-6" d="M148.92,16.12a2.3,2.3,0,0,1,3.32.21,1.8,1.8,0,0,1,.34.92h-1a1.51,1.51,0,0,0-.25-.54,1,1,0,0,0-.82-.32,1,1,0,0,0-.87.45,2.25,2.25,0,0,0-.32,1.29,1.89,1.89,0,0,0,.34,1.24,1,1,0,0,0,.85.42,1,1,0,0,0,.81-.36,1.52,1.52,0,0,0,.25-.57h1a2.19,2.19,0,0,1-.68,1.31,2,2,0,0,1-1.4.51,2.07,2.07,0,0,1-1.65-.69,2.69,2.69,0,0,1-.61-1.88A2.7,2.7,0,0,1,148.92,16.12Z"/><path class="cls-6" d="M156.29,15.6h1.08l-1.69,4.94h-1L153,15.6h1.1l1.07,3.75Z"/></g></g></svg>